<?xml version="1.0" encoding="UTF-8" standalone="no"?>
<!-- Created with Inkscape (http://www.inkscape.org/) -->

<svg
   xmlns:dc="http://purl.org/dc/elements/1.1/"
   xmlns:cc="http://creativecommons.org/ns#"
   xmlns:rdf="http://www.w3.org/1999/02/22-rdf-syntax-ns#"
   xmlns:svg="http://www.w3.org/2000/svg"
   xmlns="http://www.w3.org/2000/svg"
   xmlns:xlink="http://www.w3.org/1999/xlink"
   xmlns:sodipodi="http://sodipodi.sourceforge.net/DTD/sodipodi-0.dtd"
   xmlns:inkscape="http://www.inkscape.org/namespaces/inkscape"
   width="1000"
   height="1000"
   viewBox="0 0 1000 1000"
   id="svg2"
   version="1.1"
   inkscape:version="0.91 r13725"
   sodipodi:docname="pythonfriends_logo.svg"
   inkscape:export-filename="C:\Users\t_ohtake\Desktop\pythonfriends_logo.png"
   inkscape:export-xdpi="46.080002"
   inkscape:export-ydpi="46.080002">
  <defs
     id="defs4" />
  <sodipodi:namedview
     id="base"
     pagecolor="#ffffff"
     bordercolor="#666666"
     borderopacity="1.0"
     inkscape:pageopacity="0.0"
     inkscape:pageshadow="2"
     inkscape:zoom="0.35355339"
     inkscape:cx="263.70133"
     inkscape:cy="439.47667"
     inkscape:document-units="px"
     inkscape:current-layer="g4455"
     showgrid="true"
     units="px"
     inkscape:window-width="1443"
     inkscape:window-height="888"
     inkscape:window-x="243"
     inkscape:window-y="40"
     inkscape:window-maximized="0"
     showguides="true"
     inkscape:guide-bbox="true"
     inkscape:snap-object-midpoints="true"
     inkscape:snap-smooth-nodes="false"
     inkscape:snap-midpoints="false"
     inkscape:object-nodes="false"
     inkscape:snap-intersection-paths="false"
     inkscape:object-paths="true"
     inkscape:snap-text-baseline="true"
     inkscape:snap-center="true"
     inkscape:snap-others="false">
    <inkscape:grid
       type="xygrid"
       id="grid4136" />
    <sodipodi:guide
       position="17.999998,70.000039"
       orientation="0,1"
       id="guide4182" />
    <sodipodi:guide
       position="17.999998,70"
       orientation="-0.38268343,0.92387953"
       id="guide4184"
       inkscape:label=""
       inkscape:color="rgb(0,0,255)" />
    <sodipodi:guide
       position="-1.9073486e-006,70.000039"
       orientation="1,0"
       id="guide4188" />
    <sodipodi:guide
       position="73.14258,83.79939"
       orientation="0,1"
       id="guide4277" />
    <sodipodi:guide
       position="87.28516,83.79939"
       orientation="1,0"
       id="guide4279" />
    <sodipodi:guide
       position="942.85158,857.9883"
       orientation="0,1"
       id="guide4168" />
  </sodipodi:namedview>
  <metadata
     id="metadata7">
    <rdf:RDF>
      <cc:Work
         rdf:about="">
        <dc:format>image/svg+xml</dc:format>
        <dc:type
           rdf:resource="http://purl.org/dc/dcmitype/StillImage" />
        <dc:title />
      </cc:Work>
    </rdf:RDF>
  </metadata>
  <g
     inkscape:groupmode="layer"
     id="layer4"
     inkscape:label="Base"
     sodipodi:insensitive="true"
     style="display:none">
    <image
       sodipodi:absref="C:\Users\t_ohtake\Desktop\logo.png"
       xlink:href="logo.png"
       style="display:inline"
       y="815.625"
       x="-1.8303571"
       id="image4146"
       preserveAspectRatio="none"
       height="93.75"
       width="99.375" />
  </g>
  <g
     inkscape:label="Design"
     inkscape:groupmode="layer"
     id="layer1"
     transform="translate(0,-52.36216)"
     style="display:none"
     sodipodi:insensitive="true">
    <path
       style="fill:none;fill-rule:evenodd;stroke:#000000;stroke-width:20;stroke-linecap:round;stroke-linejoin:miter;stroke-miterlimit:4;stroke-dasharray:none;stroke-opacity:0.50196078"
       d="m 15.000425,1032.3622 50,-50.00005 -50,0"
       id="path4155"
       inkscape:connector-curvature="0" />
    <ellipse
       style="opacity:0.97000002;fill:#000000;fill-opacity:0.50196078;stroke:none;stroke-width:20;stroke-linecap:round;stroke-linejoin:miter;stroke-miterlimit:4;stroke-dasharray:none;stroke-dashoffset:0;stroke-opacity:0.43720931"
       id="path4157"
       cx="17.999998"
       cy="982.36212"
       rx="18"
       ry="14" />
    <path
       style="fill:#fa00ff;fill-opacity:0.25098039;fill-rule:evenodd;stroke:none;stroke-width:1px;stroke-linecap:butt;stroke-linejoin:miter;stroke-opacity:1"
       d="m -1.9073486e-6,982.36212 0,7.45588 L 18.000092,982.36212 Z"
       id="path4190"
       inkscape:connector-curvature="0" />
    <path
       style="fill:#ff00ff;fill-opacity:0.50196078;fill-rule:evenodd;stroke:none;stroke-width:1px;stroke-linecap:butt;stroke-linejoin:miter;stroke-opacity:0.52558139"
       d="m 55,972.36216 0,20 20,-20 z"
       id="path4192"
       inkscape:connector-curvature="0" />
    <path
       inkscape:connector-curvature="0"
       id="path4194"
       d="m 69.143,972.36216 0,20 20,-20 z"
       style="fill:#ff00ff;fill-opacity:0.50196078;fill-rule:evenodd;stroke:none;stroke-width:1px;stroke-linecap:butt;stroke-linejoin:miter;stroke-opacity:0.52558139" />
    <path
       style="fill:#00ff00;fill-opacity:0.50196078;fill-rule:evenodd;stroke:none;stroke-width:1px;stroke-linecap:butt;stroke-linejoin:miter;stroke-opacity:0.52558139"
       d="m 59,962.70531 0,20 14.142578,-14.14258 0,14.14258 20,-20 -14.142578,0 -5.857422,0 -14.142578,0 z"
       id="path4198"
       inkscape:connector-curvature="0" />
    <rect
       style="opacity:0.97000002;fill:#ff00ff;fill-opacity:0.50196078;stroke:none;stroke-width:20;stroke-linecap:round;stroke-linejoin:miter;stroke-miterlimit:4;stroke-dasharray:none;stroke-dashoffset:0;stroke-opacity:0.52558139"
       id="rect4207"
       width="35"
       height="4"
       x="59"
       y="962.36218" />
    <path
       style="fill:none;fill-rule:evenodd;stroke:#000000;stroke-width:20;stroke-linecap:round;stroke-linejoin:miter;stroke-miterlimit:4;stroke-dasharray:none;stroke-opacity:0.50196078"
       d="m 40.000425,1007.3622 15,25"
       id="path4209"
       inkscape:connector-curvature="0"
       sodipodi:nodetypes="cc" />
    <circle
       style="opacity:0.97000002;fill:#000000;fill-opacity:0.50196078;stroke:none;stroke-width:20;stroke-linecap:round;stroke-linejoin:miter;stroke-miterlimit:4;stroke-dasharray:none;stroke-dashoffset:0;stroke-opacity:0.50196078"
       id="path4298"
       cx="55"
       cy="1022.3622"
       r="20" />
    <circle
       id="circle4300"
       style="opacity:0.97000002;fill:#000000;fill-opacity:0.50196078;stroke:none;stroke-width:20;stroke-linecap:round;stroke-linejoin:miter;stroke-miterlimit:4;stroke-dasharray:none;stroke-dashoffset:0;stroke-opacity:0.50196078"
       cx="62.63932"
       cy="1022.3622"
       r="12.36068" />
    <circle
       style="opacity:0.97000002;fill:#000000;fill-opacity:0.50196078;stroke:none;stroke-width:20;stroke-linecap:round;stroke-linejoin:miter;stroke-miterlimit:4;stroke-dasharray:none;stroke-dashoffset:0;stroke-opacity:0.50196078"
       id="circle4302"
       cx="62.63932"
       cy="1017.6408"
       r="7.6393204" />
    <circle
       style="opacity:0.97000002;fill:#00ff00;fill-opacity:0.50196078;stroke:none;stroke-width:20;stroke-linecap:round;stroke-linejoin:miter;stroke-miterlimit:4;stroke-dasharray:none;stroke-dashoffset:0;stroke-opacity:0.50196078"
       id="circle4189"
       cx="59.721359"
       cy="1020.5588"
       r="7.6393204" />
    <circle
       r="12.36068"
       cy="1015.8374"
       cx="59.721359"
       style="opacity:0.97000002;fill:#00ff00;fill-opacity:0.50196078;stroke:none;stroke-width:20;stroke-linecap:round;stroke-linejoin:miter;stroke-miterlimit:4;stroke-dasharray:none;stroke-dashoffset:0;stroke-opacity:0.50196078"
       id="circle4191" />
    <circle
       r="4.7213597"
       cy="1017.6408"
       cx="59.721359"
       id="circle4197"
       style="opacity:0.97000002;fill:#00ff00;fill-opacity:0.50196078;stroke:none;stroke-width:20;stroke-linecap:round;stroke-linejoin:miter;stroke-miterlimit:4;stroke-dasharray:none;stroke-dashoffset:0;stroke-opacity:0.50196078" />
    <path
       sodipodi:nodetypes="cc"
       inkscape:connector-curvature="0"
       id="path4364"
       d="M 58.805664,893.12305 27.583008,1000.6309"
       style="display:inline;fill:none;fill-rule:evenodd;stroke:#000000;stroke-width:0.1;stroke-linecap:butt;stroke-linejoin:miter;stroke-miterlimit:4;stroke-dasharray:none;stroke-opacity:1"
       transform="translate(0,52.362161)" />
  </g>
  <g
     inkscape:groupmode="layer"
     id="layer2"
     inkscape:label="Product"
     style="display:none">
    <path
       style="color:#000000;font-style:normal;font-variant:normal;font-weight:normal;font-stretch:normal;font-size:medium;line-height:normal;font-family:sans-serif;text-indent:0;text-align:start;text-decoration:none;text-decoration-line:none;text-decoration-style:solid;text-decoration-color:#000000;letter-spacing:normal;word-spacing:normal;text-transform:none;direction:ltr;block-progression:tb;writing-mode:lr-tb;baseline-shift:baseline;text-anchor:start;white-space:normal;clip-rule:nonzero;display:inline;overflow:visible;visibility:visible;opacity:1;isolation:auto;mix-blend-mode:normal;color-interpolation:sRGB;color-interpolation-filters:linearRGB;solid-color:#000000;solid-opacity:1;fill:#beeb38;fill-opacity:1;fill-rule:evenodd;stroke:none;stroke-width:20;stroke-linecap:round;stroke-linejoin:miter;stroke-miterlimit:4;stroke-dasharray:none;stroke-dashoffset:0;stroke-opacity:1;color-rendering:auto;image-rendering:auto;shape-rendering:auto;text-rendering:auto;enable-background:accumulate"
       d="M 18,916 A 18,14 0 0 0 0,930 l 18,0 -15.8808594,6.57812 A 18,14 0 0 0 18,944 18,14 0 0 0 30.591797,940 l 10.267578,0 -32.9296875,32.92969 a 10.001,10.001 0 1 0 14.1425785,14.14062 l 13.316406,-13.3164 A 20,20 0 0 0 45,987.32031 a 20,20 0 0 0 20,0 A 20,20 0 0 0 75,970 12.36068,12.36068 0 0 0 62.638672,957.63867 a 7.6393204,7.6393204 0 0 0 -7.626953,7.30274 4.7213597,4.7213597 0 0 1 4.708984,-4.38477 7.6393204,7.6393204 0 0 1 7.640625,7.64063 7.6393204,7.6393204 0 0 1 -7.640625,7.63867 12.36068,12.36068 0 0 1 -11.419922,-7.63086 12.36068,12.36068 0 0 1 -0.787109,-6.57617 L 69.142578,940 l 0,-14.14258 L 55,940 55,920 30.572266,920 A 18,14 0 0 0 18,916 Z"
       id="path4155-7"
       inkscape:connector-curvature="0" />
    <path
       style="display:inline;fill:#9b0a82;fill-opacity:1;fill-rule:evenodd;stroke:none;stroke-width:1px;stroke-linecap:butt;stroke-linejoin:miter;stroke-opacity:0.52558139"
       d="m 59,914 0,16.34375 14.142578,-14.14258 0,14.14258 14.142578,-14.14258 0,-2.20117 L 59,914 Z"
       id="path4198-3"
       inkscape:connector-curvature="0" />
    <path
       style="fill:none;fill-rule:evenodd;stroke:#000000;stroke-width:0.1;stroke-linecap:butt;stroke-linejoin:miter;stroke-miterlimit:4;stroke-dasharray:none;stroke-opacity:1"
       d="M 58.805664,893.12305 27.583008,1000.6309"
       id="path4313"
       inkscape:connector-curvature="0"
       sodipodi:nodetypes="cc" />
  </g>
  <g
     inkscape:groupmode="layer"
     id="layer3"
     inkscape:label="Finish"
     style="display:none">
    <path
       style="display:inline;fill:#beeb38;fill-opacity:1;fill-rule:evenodd;stroke:none;stroke-width:1px;stroke-linecap:butt;stroke-linejoin:miter;stroke-opacity:0.52558139"
       d="m 59.000092,913.99996 0,16.34375 14.142578,-14.14258 0,14.14258 14.142578,-14.14258 0,-2.20117 -28.285156,0 z"
       id="path4198-3-5"
       inkscape:connector-curvature="0" />
    <path
       inkscape:connector-curvature="0"
       style="color:#000000;font-style:normal;font-variant:normal;font-weight:normal;font-stretch:normal;font-size:medium;line-height:normal;font-family:sans-serif;text-indent:0;text-align:start;text-decoration:none;text-decoration-line:none;text-decoration-style:solid;text-decoration-color:#000000;letter-spacing:normal;word-spacing:normal;text-transform:none;direction:ltr;block-progression:tb;writing-mode:lr-tb;baseline-shift:baseline;text-anchor:start;white-space:normal;clip-rule:nonzero;display:inline;overflow:visible;visibility:visible;opacity:1;isolation:auto;mix-blend-mode:normal;color-interpolation:sRGB;color-interpolation-filters:linearRGB;solid-color:#000000;solid-opacity:1;fill:#beeb38;fill-opacity:1;fill-rule:evenodd;stroke:none;stroke-width:20;stroke-linecap:round;stroke-linejoin:miter;stroke-miterlimit:4;stroke-dasharray:none;stroke-dashoffset:0;stroke-opacity:1;color-rendering:auto;image-rendering:auto;shape-rendering:auto;text-rendering:auto;enable-background:accumulate"
       d="m 51.000092,919.99996 -15.611328,53.75391 a 20,20 0 0 0 0,0.002 20,20 0 0 0 9.611328,13.5644 20,20 0 0 0 20,0 20,20 0 0 0 10,-17.32031 12.36068,12.36068 0 0 0 -12.361328,-12.36133 7.6393204,7.6393204 0 0 0 -7.626953,7.30274 4.7213597,4.7213597 0 0 1 4.708984,-4.38477 7.6393204,7.6393204 0 0 1 7.640625,7.64063 7.6393204,7.6393204 0 0 1 -7.640625,7.63867 12.36068,12.36068 0 0 1 -11.419922,-7.63086 12.36068,12.36068 0 0 1 -0.787109,-6.57617 l 21.628906,-21.62891 0,-14.14258 -14.142578,14.14258 0,-20 -4,0 z"
       id="path4155-7-2-4" />
    <path
       style="color:#000000;font-style:normal;font-variant:normal;font-weight:normal;font-stretch:normal;font-size:medium;line-height:normal;font-family:sans-serif;text-indent:0;text-align:start;text-decoration:none;text-decoration-line:none;text-decoration-style:solid;text-decoration-color:#000000;letter-spacing:normal;word-spacing:normal;text-transform:none;direction:ltr;block-progression:tb;writing-mode:lr-tb;baseline-shift:baseline;text-anchor:start;white-space:normal;clip-rule:nonzero;display:inline;overflow:visible;visibility:visible;opacity:1;isolation:auto;mix-blend-mode:normal;color-interpolation:sRGB;color-interpolation-filters:linearRGB;solid-color:#000000;solid-opacity:1;fill:#9b0a82;fill-opacity:1;fill-rule:evenodd;stroke:none;stroke-width:20;stroke-linecap:round;stroke-linejoin:miter;stroke-miterlimit:4;stroke-dasharray:none;stroke-dashoffset:0;stroke-opacity:1;color-rendering:auto;image-rendering:auto;shape-rendering:auto;text-rendering:auto;enable-background:accumulate"
       d="M 18,916 A 18,14 0 0 0 0,930 l 18,0 -15.8808594,6.57812 A 18,14 0 0 0 18,944 18,14 0 0 0 30.591797,940 l 10.267578,0 -32.9296875,32.92969 a 10.001,10.001 0 1 0 14.1425785,14.14062 l 13.316406,-13.31445 a 20,20 0 0 0 0,-0.002 L 51,920 30.572266,920 A 18,14 0 0 0 18,916 Z m -8,6 a 2,2 0 0 1 2,2 2,2 0 0 1 -2,2 2,2 0 0 1 -2,-2 2,2 0 0 1 2,-2 z m 30.224609,61.42188 a 20,20 0 0 0 0.705079,0.77539 20,20 0 0 1 -0.705079,-0.77539 z"
       id="path4155-7-2"
       inkscape:connector-curvature="0" />
  </g>
  <g
     style="display:inline"
     inkscape:label="Scaled"
     id="g4455"
     inkscape:groupmode="layer">
    <rect
       style="opacity:0.97000002;fill:#ffffff;fill-opacity:1;stroke:none;stroke-width:0.1;stroke-linecap:round;stroke-linejoin:miter;stroke-miterlimit:4;stroke-dasharray:none;stroke-dashoffset:0;stroke-opacity:0.50196078"
       id="rect4468"
       width="1000"
       height="1000"
       x="0"
       y="1.1444092e-005" />
    <path
       style="display:inline;fill:#9b0a82;fill-opacity:1;fill-rule:evenodd;stroke:none;stroke-width:1px;stroke-linecap:butt;stroke-linejoin:miter;stroke-opacity:0.52558139"
       d="M 660 142.01172 L 660 283.4375 L 801.42578 142.01172 L 660 142.01172 z M 801.42578 142.01172 L 801.42578 283.4375 L 942.85156 142.01172 L 801.42578 142.01172 z "
       id="path4198-3-5-8" />
    <path
       style="color:#000000;font-style:normal;font-variant:normal;font-weight:normal;font-stretch:normal;font-size:medium;line-height:normal;font-family:sans-serif;text-indent:0;text-align:start;text-decoration:none;text-decoration-line:none;text-decoration-style:solid;text-decoration-color:#000000;letter-spacing:normal;word-spacing:normal;text-transform:none;direction:ltr;block-progression:tb;writing-mode:lr-tb;baseline-shift:baseline;text-anchor:start;white-space:normal;clip-rule:nonzero;display:inline;overflow:visible;visibility:visible;opacity:1;isolation:auto;mix-blend-mode:normal;color-interpolation:sRGB;color-interpolation-filters:linearRGB;solid-color:#000000;solid-opacity:1;fill:#9b0a82;fill-opacity:1;fill-rule:evenodd;stroke:none;stroke-width:20;stroke-linecap:round;stroke-linejoin:miter;stroke-miterlimit:4;stroke-dasharray:none;stroke-dashoffset:0;stroke-opacity:1;color-rendering:auto;image-rendering:auto;shape-rendering:auto;text-rendering:auto;enable-background:accumulate"
       d="M 250 140 A 180 140 0 0 0 70 280 L 250 280 L 91.191406 345.78125 A 180 140 0 0 0 250 420 A 180 140 0 0 0 375.91797 380 L 478.59375 380 L 149.29688 709.29688 A 100.01 100.01 0 1 0 290.72266 850.70312 L 423.88672 717.55859 A 200 200 0 0 0 520 853.20312 A 200 200 0 0 0 720 853.20312 A 200 200 0 0 0 820 680 A 123.6068 123.6068 0 0 0 696.38672 556.38672 A 76.393204 76.393204 0 0 0 620.11719 629.41406 A 47.213597 47.213597 0 0 1 667.20703 585.56641 A 76.393204 76.393204 0 0 1 743.61328 661.97266 A 76.393204 76.393204 0 0 1 667.20703 738.35938 A 123.6068 123.6068 0 0 1 553.00781 662.05078 A 123.6068 123.6068 0 0 1 545.13672 596.28906 L 761.42578 380 L 761.42578 238.57422 L 620 380 L 620 180 L 580 180 L 375.72266 180 A 180 140 0 0 0 250 140 z M 170 200 A 20 20 0 0 1 190 220 A 20 20 0 0 1 170 240 A 20 20 0 0 1 150 220 A 20 20 0 0 1 170 200 z "
       id="path4155-7-2-4-3" />
  </g>
</svg>
